<svg class="svg-icon" style="width: 1em; height: 1em;" viewBox="0 0 1024 1024" version="1.1" xmlns="http://www.w3.org/2000/svg">
<path d="M512 85.333333a426.666667 426.666667 0 0 1 426.666667 426.666667 426.666667 426.666667 0 0 1-426.666667 426.666667A426.666667 426.666667 0 0 1 85.333333 512 426.666667 426.666667 0 0 1 512 85.333333m0 85.333334c-174.08 0-317.866667 130.133333-338.773333 298.666666h173.653333c18.773333-73.813333 85.76-128 165.12-128 79.36 0 146.346667 54.186667 165.12 128h173.653333c-20.906667-168.533333-164.693333-298.666667-338.773333-298.666666m0 682.666666c174.08 0 317.866667-130.133333 338.773333-298.666666h-173.653333c-18.773333 73.813333-85.76 128-165.12 128-79.36 0-146.346667-54.186667-165.12-128H173.226667c20.906667 168.533333 164.693333 298.666667 338.773333 298.666666m0-426.666666a85.333333 85.333333 0 0 0-85.333333 85.333333 85.333333 85.333333 0 0 0 85.333333 85.333333 85.333333 85.333333 0 0 0 85.333333-85.333333 85.333333 85.333333 0 0 0-85.333333-85.333333z" fill="white" stroke-width="3" stroke="white"/>
</svg>